<?xml version="1.0" encoding="UTF-8" standalone="no"?><svg xmlns="http://www.w3.org/2000/svg" xmlns:xlink="http://www.w3.org/1999/xlink" contentStyleType="text/css" height="800.0811px" preserveAspectRatio="none" style="width:6536px;height:800px;background:#FFFFFF;" version="1.1" viewBox="0 0 6536 800" width="6536.4023px" zoomAndPan="magnify"><defs/><g><rect height="37.9777" style="stroke:#00000000;stroke-width:1.4441896302220147;fill:none;" width="202.1865" x="3156.9985" y="7.2209"/><text fill="#000000" font-family="sans-serif" font-size="20.2187" font-weight="bold" lengthAdjust="spacing" textLength="187.7447" x="3164.2195" y="33.2093">Package Digram</text><!--MD5=[c60679dfbe80eab0cae5e3add7b10464]
cluster src--><g id="cluster_src"><path d="M1089.6411,176.1101 L1127.19,176.1101 A5.4157,5.4157 0 0 1 1130.8005,179.7206 L1140.9098,208.311 L5955.1159,208.311 A3.6105,3.6105 0 0 1 5958.7264,211.9215 L5958.7264,787.7244 A3.6105,3.6105 0 0 1 5955.1159,791.3349 L1089.6411,791.3349 A3.6105,3.6105 0 0 1 1086.0306,787.7244 L1086.0306,179.7206 A3.6105,3.6105 0 0 1 1089.6411,176.1101 " style="stroke:#000000;stroke-width:2.166284445333022;fill:none;"/><line style="stroke:#000000;stroke-width:2.166284445333022;fill:none;" x1="1086.0306" x2="1140.9098" y1="208.311" y2="208.311"/><text fill="#000000" font-family="sans-serif" font-size="20.2187" font-weight="bold" lengthAdjust="spacing" textLength="36.1047" x="1091.8074" y="197.7659">src</text></g><!--MD5=[d0ebe9c951ff8ab0366faa070604fe9a]
cluster Embeddings--><g id="cluster_Embeddings"><path d="M5407.7681,379.0187 L5549.2987,379.0187 A5.4157,5.4157 0 0 1 5552.9091,382.6292 L5563.0185,411.2196 L5920.4554,411.2196 A3.6105,3.6105 0 0 1 5924.0659,414.8301 L5924.0659,612.2553 A3.6105,3.6105 0 0 1 5920.4554,615.8658 L5407.7681,615.8658 A3.6105,3.6105 0 0 1 5404.1576,612.2553 L5404.1576,382.6292 A3.6105,3.6105 0 0 1 5407.7681,379.0187 " style="stroke:#000000;stroke-width:2.166284445333022;fill:none;"/><line style="stroke:#000000;stroke-width:2.166284445333022;fill:none;" x1="5404.1576" x2="5563.0185" y1="411.2196" y2="411.2196"/><text fill="#000000" font-family="sans-serif" font-size="20.2187" font-weight="bold" lengthAdjust="spacing" textLength="140.0864" x="5409.9344" y="400.6745">Embeddings</text></g><!--MD5=[f21b1f164e99c6b37934f23ad048ad54]
cluster Data--><g id="cluster_Data"><path d="M4522.4798,320.529 L4580.2474,320.529 A5.4157,5.4157 0 0 1 4583.8579,324.1395 L4593.9672,352.73 L5354.3331,352.73 A3.6105,3.6105 0 0 1 5357.9435,356.3404 L5357.9435,670.745 A3.6105,3.6105 0 0 1 5354.3331,674.3555 L4522.4798,674.3555 A3.6105,3.6105 0 0 1 4518.8694,670.745 L4518.8694,324.1395 A3.6105,3.6105 0 0 1 4522.4798,320.529 " style="stroke:#000000;stroke-width:2.166284445333022;fill:none;"/><line style="stroke:#000000;stroke-width:2.166284445333022;fill:none;" x1="4518.8694" x2="4593.9672" y1="352.73" y2="352.73"/><text fill="#000000" font-family="sans-serif" font-size="20.2187" font-weight="bold" lengthAdjust="spacing" textLength="56.3234" x="4524.6461" y="342.1848">Data</text></g><!--MD5=[15636c1ca4a123c16a2a1a8e90aca7a9]
cluster Model--><g id="cluster_Model"><path d="M3037.8529,249.7638 L3108.6182,249.7638 A5.4157,5.4157 0 0 1 3112.2287,253.3742 L3122.338,281.9647 L4457.4913,281.9647 A3.6105,3.6105 0 0 1 4461.1018,285.5751 L4461.1018,741.5103 A3.6105,3.6105 0 0 1 4457.4913,745.1208 L3037.8529,745.1208 A3.6105,3.6105 0 0 1 3034.2424,741.5103 L3034.2424,253.3742 A3.6105,3.6105 0 0 1 3037.8529,249.7638 " style="stroke:#000000;stroke-width:2.166284445333022;fill:none;"/><line style="stroke:#000000;stroke-width:2.166284445333022;fill:none;" x1="3034.2424" x2="3122.338" y1="281.9647" y2="281.9647"/><text fill="#000000" font-family="sans-serif" font-size="20.2187" font-weight="bold" lengthAdjust="spacing" textLength="69.3211" x="3040.0192" y="271.4195">Model</text></g><!--MD5=[647875462d30e512fb194e62dfab8bff]
cluster Tokenizer--><g id="cluster_Tokenizer"><path d="M2327.3116,379.0187 L2442.8468,379.0187 A5.4157,5.4157 0 0 1 2446.4572,382.6292 L2456.5666,411.2196 L2984.4179,411.2196 A3.6105,3.6105 0 0 1 2988.0283,414.8301 L2988.0283,612.2553 A3.6105,3.6105 0 0 1 2984.4179,615.8658 L2327.3116,615.8658 A3.6105,3.6105 0 0 1 2323.7011,612.2553 L2323.7011,382.6292 A3.6105,3.6105 0 0 1 2327.3116,379.0187 " style="stroke:#000000;stroke-width:2.166284445333022;fill:none;"/><line style="stroke:#000000;stroke-width:2.166284445333022;fill:none;" x1="2323.7011" x2="2456.5666" y1="411.2196" y2="411.2196"/><text fill="#000000" font-family="sans-serif" font-size="20.2187" font-weight="bold" lengthAdjust="spacing" textLength="114.091" x="2329.4779" y="400.6745">Tokenizer</text></g><!--MD5=[6bf345afb6d5123b7cfa103be96f4e84]
cluster Train--><g id="cluster_Train"><path d="M1135.8551,320.529 L1199.3995,320.529 A5.4157,5.4157 0 0 1 1203.01,324.1395 L1213.1193,352.73 L2273.8766,352.73 A3.6105,3.6105 0 0 1 2277.487,356.3404 L2277.487,670.745 A3.6105,3.6105 0 0 1 2273.8766,674.3555 L1135.8551,674.3555 A3.6105,3.6105 0 0 1 1132.2447,670.745 L1132.2447,324.1395 A3.6105,3.6105 0 0 1 1135.8551,320.529 " style="stroke:#000000;stroke-width:2.166284445333022;fill:none;"/><line style="stroke:#000000;stroke-width:2.166284445333022;fill:none;" x1="1132.2447" x2="1213.1193" y1="352.73" y2="352.73"/><text fill="#000000" font-family="sans-serif" font-size="20.2187" font-weight="bold" lengthAdjust="spacing" textLength="62.1002" x="1138.0214" y="342.1848">Train</text></g><!--MD5=[a19a1bd4aab85387a00189bb676cf4e4]
cluster build--><g id="cluster_build"><path d="M12.2756,246.8754 L71.4874,246.8754 A5.4157,5.4157 0 0 1 75.0979,250.4858 L85.2072,279.0763 L1047.7596,279.0763 A3.6105,3.6105 0 0 1 1051.3701,282.6868 L1051.3701,716.9591 A3.6105,3.6105 0 0 1 1047.7596,720.5696 L12.2756,720.5696 A3.6105,3.6105 0 0 1 8.6651,716.9591 L8.6651,250.4858 A3.6105,3.6105 0 0 1 12.2756,246.8754 " style="stroke:#000000;stroke-width:2.166284445333022;fill:none;"/><line style="stroke:#000000;stroke-width:2.166284445333022;fill:none;" x1="8.6651" x2="85.2072" y1="279.0763" y2="279.0763"/><text fill="#000000" font-family="sans-serif" font-size="20.2187" font-weight="bold" lengthAdjust="spacing" textLength="57.7676" x="14.4419" y="268.5312">build</text></g><!--MD5=[6d52f91a76c2aeb627ad7c6db04e4a07]
cluster Custom_model--><g id="cluster_Custom_model"><path d="M562.5119,320.529 L734.3704,320.529 A5.4157,5.4157 0 0 1 737.9809,324.1395 L748.0902,352.73 L1001.5455,352.73 A3.6105,3.6105 0 0 1 1005.156,356.3404 L1005.156,670.745 A3.6105,3.6105 0 0 1 1001.5455,674.3555 L562.5119,674.3555 A3.6105,3.6105 0 0 1 558.9014,670.745 L558.9014,324.1395 A3.6105,3.6105 0 0 1 562.5119,320.529 " style="stroke:#000000;stroke-width:2.166284445333022;fill:none;"/><line style="stroke:#000000;stroke-width:2.166284445333022;fill:none;" x1="558.9014" x2="748.0902" y1="352.73" y2="352.73"/><text fill="#000000" font-family="sans-serif" font-size="20.2187" font-weight="bold" lengthAdjust="spacing" textLength="170.4144" x="564.6781" y="342.1848">Custom_model</text></g><!--MD5=[454a11e0d156841f3c5b1f6babc46770]
cluster Model_--><g id="cluster_Model_"><path d="M58.4897,320.529 L139.3643,320.529 A5.4157,5.4157 0 0 1 142.9748,324.1395 L153.0841,352.73 L497.5233,352.73 A3.6105,3.6105 0 0 1 501.1338,356.3404 L501.1338,670.745 A3.6105,3.6105 0 0 1 497.5233,674.3555 L58.4897,674.3555 A3.6105,3.6105 0 0 1 54.8792,670.745 L54.8792,324.1395 A3.6105,3.6105 0 0 1 58.4897,320.529 " style="stroke:#000000;stroke-width:2.166284445333022;fill:none;"/><line style="stroke:#000000;stroke-width:2.166284445333022;fill:none;" x1="54.8792" x2="153.0841" y1="352.73" y2="352.73"/><text fill="#000000" font-family="sans-serif" font-size="20.2187" font-weight="bold" lengthAdjust="spacing" textLength="79.4304" x="60.656" y="342.1848">Model_</text></g><!--MD5=[07c4e9609fcaf1e20a8956899ee967d9]
cluster use--><g id="cluster_use"><path d="M5996.9974,187.6636 L6038.8789,187.6636 A5.4157,5.4157 0 0 1 6042.4894,191.2741 L6052.5987,219.8645 L6522.6825,219.8645 A3.6105,3.6105 0 0 1 6526.2929,223.475 L6526.2929,776.1709 A3.6105,3.6105 0 0 1 6522.6825,779.7813 L5996.9974,779.7813 A3.6105,3.6105 0 0 1 5993.387,776.1709 L5993.387,191.2741 A3.6105,3.6105 0 0 1 5996.9974,187.6636 " style="stroke:#000000;stroke-width:2.166284445333022;fill:none;"/><line style="stroke:#000000;stroke-width:2.166284445333022;fill:none;" x1="5993.387" x2="6052.5987" y1="219.8645" y2="219.8645"/><text fill="#000000" font-family="sans-serif" font-size="20.2187" font-weight="bold" lengthAdjust="spacing" textLength="40.4373" x="5999.1637" y="209.3194">use</text></g><!--MD5=[6f92137bd1c75f5feb253e701f34a6e1]
cluster Translator--><g id="cluster_Translator"><path d="M6043.2115,261.3173 L6170.3002,261.3173 A5.4157,5.4157 0 0 1 6173.9107,264.9277 L6184.02,293.5182 L6476.4684,293.5182 A3.6105,3.6105 0 0 1 6480.0789,297.1287 L6480.0789,729.9568 A3.6105,3.6105 0 0 1 6476.4684,733.5673 L6043.2115,733.5673 A3.6105,3.6105 0 0 1 6039.601,729.9568 L6039.601,264.9277 A3.6105,3.6105 0 0 1 6043.2115,261.3173 " style="stroke:#000000;stroke-width:2.166284445333022;fill:none;"/><line style="stroke:#000000;stroke-width:2.166284445333022;fill:none;" x1="6039.601" x2="6184.02" y1="293.5182" y2="293.5182"/><text fill="#000000" font-family="sans-serif" font-size="20.2187" font-weight="bold" lengthAdjust="spacing" textLength="125.6445" x="6045.3778" y="282.9731">Translator</text></g><!--MD5=[d315e02bf0dfc53d1eba9e05ed014f72]
class Embeddings--><g id="elem_Embeddings"><rect codeLine="10" fill="#F1F1F1" height="163.4642" id="Embeddings" rx="3.6105" ry="3.6105" style="stroke:#181818;stroke-width:0.7220948151110074;" width="473.6942" x="5427.2646" y="429.5654"/><ellipse cx="5593.7075" cy="452.6724" fill="#ADD1B2" rx="15.8861" ry="15.8861" style="stroke:#181818;stroke-width:1.4441896302220147;"/><path d="M5597.0923,446.4218 C5595.7384,445.7899 5594.8809,445.5868 5593.6172,445.5868 C5589.8262,445.5868 5586.9378,448.588 5586.9378,452.5144 L5586.9378,454.1391 C5586.9378,457.8625 5589.9842,460.5929 5594.1588,460.5929 C5595.9189,460.5929 5597.5887,460.1641 5598.6719,459.3743 C5599.5068,458.7876 5599.9807,458.1332 5599.9807,457.5691 C5599.9807,456.9147 5599.4165,456.3506 5598.7396,456.3506 C5598.4237,456.3506 5598.1303,456.4634 5597.8595,456.7342 C5597.2051,457.4337 5597.2051,457.4337 5596.9343,457.5691 C5596.3251,457.9527 5595.3322,458.1332 5594.2265,458.1332 C5591.2704,458.1332 5589.3975,456.5537 5589.3975,454.094 L5589.3975,452.5144 C5589.3975,449.942 5591.2027,448.0465 5593.7075,448.0465 C5594.5424,448.0465 5595.4225,448.2721 5596.0994,448.6332 C5596.799,449.0394 5597.0472,449.3553 5597.1826,449.942 C5597.2728,450.5287 5597.318,450.7092 5597.521,450.8897 C5597.7241,451.0928 5598.0626,451.2508 5598.3785,451.2508 C5598.7621,451.2508 5599.1458,451.0477 5599.394,450.7318 C5599.5519,450.5061 5599.5971,450.2353 5599.5971,449.6261 L5599.5971,447.5726 C5599.5971,446.9408 5599.5745,446.7602 5599.4391,446.5346 C5599.2135,446.151 5598.8073,445.9479 5598.3785,445.9479 C5597.9498,445.9479 5597.6564,446.0833 5597.3405,446.5346 L5597.0923,446.4218 Z " fill="#000000"/><text fill="#000000" font-family="sans-serif" font-size="20.2187" lengthAdjust="spacing" textLength="128.5329" x="5623.3134" y="459.6719">Embeddings</text><line style="stroke:#181818;stroke-width:0.7220948151110074;" x1="5428.7088" x2="5899.5146" y1="475.7794" y2="475.7794"/><text fill="#000000" font-family="sans-serif" font-size="20.2187" lengthAdjust="spacing" textLength="102.5375" x="5435.9298" y="500.3236">input_wtv</text><text fill="#000000" font-family="sans-serif" font-size="20.2187" lengthAdjust="spacing" textLength="114.091" x="5435.9298" y="523.8594">target_wtv</text><line style="stroke:#181818;stroke-width:0.7220948151110074;" x1="5428.7088" x2="5899.5146" y1="534.4045" y2="534.4045"/><ellipse cx="5443.1507" cy="550.2906" fill="#84BE84" rx="4.3326" ry="4.3326" style="stroke:#038048;stroke-width:1.4441896302220147;"/><text fill="#000000" font-family="sans-serif" font-size="20.2187" lengthAdjust="spacing" textLength="420.2592" x="5456.1484" y="558.9487">create_embedding_mat(lang_type ,lang)</text><ellipse cx="5443.1507" cy="573.8264" fill="#84BE84" rx="4.3326" ry="4.3326" style="stroke:#038048;stroke-width:1.4441896302220147;"/><text fill="#000000" font-family="sans-serif" font-size="20.2187" lengthAdjust="spacing" textLength="436.1453" x="5456.1484" y="582.4845">get_embedding_leyar(embedding_matrix)</text></g><!--MD5=[8b82677223ea9eb28a50de16faa90dcd]
class Dataset--><g id="elem_Dataset"><rect codeLine="18" fill="#F1F1F1" height="257.6073" id="Dataset" rx="3.6105" ry="3.6105" style="stroke:#181818;stroke-width:0.7220948151110074;" width="742.3135" x="4580.9695" y="382.6292"/><ellipse cx="4904.829" cy="405.7362" fill="#ADD1B2" rx="15.8861" ry="15.8861" style="stroke:#181818;stroke-width:1.4441896302220147;"/><path d="M4908.2139,399.4856 C4906.8599,398.8538 4906.0024,398.6507 4904.7388,398.6507 C4900.9478,398.6507 4898.0594,401.6519 4898.0594,405.5783 L4898.0594,407.203 C4898.0594,410.9263 4901.1057,413.6567 4905.2803,413.6567 C4907.0404,413.6567 4908.7103,413.228 4909.7934,412.4382 C4910.6284,411.8515 4911.1022,411.1971 4911.1022,410.6329 C4911.1022,409.9785 4910.5381,409.4144 4909.8611,409.4144 C4909.5452,409.4144 4909.2519,409.5272 4908.9811,409.798 C4908.3267,410.4975 4908.3267,410.4975 4908.0559,410.6329 C4907.4466,411.0165 4906.4537,411.1971 4905.348,411.1971 C4902.392,411.1971 4900.519,409.6175 4900.519,407.1579 L4900.519,405.5783 C4900.519,403.0058 4902.3243,401.1103 4904.829,401.1103 C4905.664,401.1103 4906.544,401.336 4907.221,401.697 C4907.9205,402.1032 4908.1687,402.4191 4908.3041,403.0058 C4908.3944,403.5925 4908.4395,403.773 4908.6426,403.9536 C4908.8457,404.1566 4909.1842,404.3146 4909.5001,404.3146 C4909.8837,404.3146 4910.2673,404.1115 4910.5155,403.7956 C4910.6735,403.5699 4910.7186,403.2992 4910.7186,402.6899 L4910.7186,400.6364 C4910.7186,400.0046 4910.6961,399.8241 4910.5607,399.5984 C4910.335,399.2148 4909.9288,399.0117 4909.5001,399.0117 C4909.0713,399.0117 4908.778,399.1471 4908.4621,399.5984 L4908.2139,399.4856 Z " fill="#000000"/><text fill="#000000" font-family="sans-serif" font-size="20.2187" lengthAdjust="spacing" textLength="82.3188" x="4934.4349" y="412.7358">Dataset</text><line style="stroke:#181818;stroke-width:0.7220948151110074;" x1="4582.4137" x2="5321.8388" y1="428.8433" y2="428.8433"/><text fill="#000000" font-family="sans-serif" font-size="20.2187" lengthAdjust="spacing" textLength="108.3142" x="4589.6346" y="453.3874">train_path</text><text fill="#000000" font-family="sans-serif" font-size="20.2187" lengthAdjust="spacing" textLength="102.5375" x="4589.6346" y="476.9232">test_path</text><text fill="#000000" font-family="sans-serif" font-size="20.2187" lengthAdjust="spacing" textLength="197.854" x="4589.6346" y="500.459">inp_lang_tokenizer</text><text fill="#000000" font-family="sans-serif" font-size="20.2187" lengthAdjust="spacing" textLength="207.9633" x="4589.6346" y="523.9948">targ_lang_tokenizer</text><text fill="#000000" font-family="sans-serif" font-size="20.2187" lengthAdjust="spacing" textLength="138.6422" x="4589.6346" y="547.5305">tranning_size</text><line style="stroke:#181818;stroke-width:0.7220948151110074;" x1="4582.4137" x2="5321.8388" y1="558.0757" y2="558.0757"/><ellipse cx="4596.8556" cy="573.9618" fill="#84BE84" rx="4.3326" ry="4.3326" style="stroke:#038048;stroke-width:1.4441896302220147;"/><text fill="#000000" font-family="sans-serif" font-size="20.2187" lengthAdjust="spacing" textLength="329.2752" x="4609.8533" y="582.6198">load_data(num_examples, train)</text><ellipse cx="4596.8556" cy="597.4975" fill="#84BE84" rx="4.3326" ry="4.3326" style="stroke:#038048;stroke-width:1.4441896302220147;"/><text fill="#000000" font-family="sans-serif" font-size="20.2187" lengthAdjust="spacing" textLength="478.0268" x="4609.8533" y="606.1556">get_data(tokenize,vocab_size,num_examples)</text><ellipse cx="4596.8556" cy="621.0333" fill="#84BE84" rx="4.3326" ry="4.3326" style="stroke:#038048;stroke-width:1.4441896302220147;"/><text fill="#000000" font-family="sans-serif" font-size="20.2187" lengthAdjust="spacing" textLength="704.7645" x="4609.8533" y="629.6914">call(num_examples, BUFFER_SIZE, BATCH_SIZE,vocab_size,tokenize)</text></g><!--MD5=[a6c6c764ef525f81bbc9f42f79e225a1]
class Encoder--><g id="elem_Encoder"><rect codeLine="30" fill="#F1F1F1" height="210.5358" id="Encoder" rx="3.6105" ry="3.6105" style="stroke:#181818;stroke-width:0.7220948151110074;" width="285.9495" x="4140.4917" y="405.7362"/><ellipse cx="4234.725" cy="428.8433" fill="#ADD1B2" rx="15.8861" ry="15.8861" style="stroke:#181818;stroke-width:1.4441896302220147;"/><path d="M4238.1099,422.5926 C4236.7559,421.9608 4235.8984,421.7577 4234.6348,421.7577 C4230.8438,421.7577 4227.9554,424.7589 4227.9554,428.6853 L4227.9554,430.31 C4227.9554,434.0333 4231.0017,436.7637 4235.1764,436.7637 C4236.9365,436.7637 4238.6063,436.335 4239.6894,435.5452 C4240.5244,434.9585 4240.9982,434.3041 4240.9982,433.74 C4240.9982,433.0856 4240.4341,432.5214 4239.7571,432.5214 C4239.4412,432.5214 4239.1479,432.6343 4238.8771,432.905 C4238.2227,433.6046 4238.2227,433.6046 4237.9519,433.74 C4237.3426,434.1236 4236.3498,434.3041 4235.244,434.3041 C4232.288,434.3041 4230.415,432.7245 4230.415,430.2649 L4230.415,428.6853 C4230.415,426.1128 4232.2203,424.2173 4234.725,424.2173 C4235.56,424.2173 4236.44,424.443 4237.117,424.804 C4237.8165,425.2102 4238.0647,425.5261 4238.2001,426.1128 C4238.2904,426.6995 4238.3355,426.8801 4238.5386,427.0606 C4238.7417,427.2637 4239.0802,427.4216 4239.3961,427.4216 C4239.7797,427.4216 4240.1633,427.2186 4240.4115,426.9026 C4240.5695,426.677 4240.6146,426.4062 4240.6146,425.7969 L4240.6146,423.7435 C4240.6146,423.1116 4240.5921,422.9311 4240.4567,422.7055 C4240.231,422.3218 4239.8248,422.1188 4239.3961,422.1188 C4238.9674,422.1188 4238.674,422.2541 4238.3581,422.7055 L4238.1099,422.5926 Z " fill="#000000"/><text fill="#000000" font-family="sans-serif" font-size="20.2187" lengthAdjust="spacing" textLength="85.2072" x="4264.3309" y="435.8428">Encoder</text><line style="stroke:#181818;stroke-width:0.7220948151110074;" x1="4141.9359" x2="4424.997" y1="451.9503" y2="451.9503"/><text fill="#000000" font-family="sans-serif" font-size="20.2187" lengthAdjust="spacing" textLength="92.4281" x="4149.1568" y="476.4945">batch_sz</text><text fill="#000000" font-family="sans-serif" font-size="20.2187" lengthAdjust="spacing" textLength="98.2049" x="4149.1568" y="500.0302">enc_units</text><text fill="#000000" font-family="sans-serif" font-size="20.2187" lengthAdjust="spacing" textLength="118.4235" x="4149.1568" y="523.566">embedding</text><text fill="#000000" font-family="sans-serif" font-size="20.2187" lengthAdjust="spacing" textLength="106.87" x="4149.1568" y="547.1018">lstm_layer</text><line style="stroke:#181818;stroke-width:0.7220948151110074;" x1="4141.9359" x2="4424.997" y1="557.6469" y2="557.6469"/><ellipse cx="4156.3778" cy="573.533" fill="#84BE84" rx="4.3326" ry="4.3326" style="stroke:#038048;stroke-width:1.4441896302220147;"/><text fill="#000000" font-family="sans-serif" font-size="20.2187" lengthAdjust="spacing" textLength="142.9748" x="4169.3755" y="582.1911">call(x, hidden)</text><ellipse cx="4156.3778" cy="597.0688" fill="#84BE84" rx="4.3326" ry="4.3326" style="stroke:#038048;stroke-width:1.4441896302220147;"/><text fill="#000000" font-family="sans-serif" font-size="20.2187" lengthAdjust="spacing" textLength="248.4006" x="4169.3755" y="605.7269">initialize_hidden_state()</text></g><!--MD5=[59c77a504eba5b642215a383ec5594bf]
class Decoder--><g id="elem_Decoder"><rect codeLine="39" fill="#F1F1F1" height="398.822" id="Decoder" rx="3.6105" ry="3.6105" style="stroke:#181818;stroke-width:0.7220948151110074;" width="992.1583" x="3097.0647" y="311.8639"/><ellipse cx="3542.9582" cy="334.9709" fill="#ADD1B2" rx="15.8861" ry="15.8861" style="stroke:#181818;stroke-width:1.4441896302220147;"/><path d="M3546.343,328.7203 C3544.9891,328.0885 3544.1316,327.8854 3542.8679,327.8854 C3539.077,327.8854 3536.1886,330.8866 3536.1886,334.813 L3536.1886,336.4377 C3536.1886,340.161 3539.2349,342.8914 3543.4095,342.8914 C3545.1696,342.8914 3546.8395,342.4627 3547.9226,341.6729 C3548.7575,341.0862 3549.2314,340.4318 3549.2314,339.8676 C3549.2314,339.2132 3548.6673,338.6491 3547.9903,338.6491 C3547.6744,338.6491 3547.381,338.7619 3547.1103,339.0327 C3546.4559,339.7323 3546.4559,339.7323 3546.1851,339.8676 C3545.5758,340.2513 3544.5829,340.4318 3543.4772,340.4318 C3540.5211,340.4318 3538.6482,338.8522 3538.6482,336.3926 L3538.6482,334.813 C3538.6482,332.2405 3540.4534,330.345 3542.9582,330.345 C3543.7931,330.345 3544.6732,330.5707 3545.3501,330.9317 C3546.0497,331.3379 3546.2979,331.6538 3546.4333,332.2405 C3546.5236,332.8272 3546.5687,333.0077 3546.7718,333.1883 C3546.9749,333.3914 3547.3133,333.5493 3547.6293,333.5493 C3548.0129,333.5493 3548.3965,333.3462 3548.6447,333.0303 C3548.8027,332.8047 3548.8478,332.5339 3548.8478,331.9246 L3548.8478,329.8711 C3548.8478,329.2393 3548.8252,329.0588 3548.6898,328.8331 C3548.4642,328.4495 3548.058,328.2464 3547.6293,328.2464 C3547.2005,328.2464 3546.9072,328.3818 3546.5912,328.8331 L3546.343,328.7203 Z " fill="#000000"/><text fill="#000000" font-family="sans-serif" font-size="20.2187" lengthAdjust="spacing" textLength="88.0956" x="3572.5641" y="341.9705">Decoder</text><line style="stroke:#181818;stroke-width:0.7220948151110074;" x1="3098.5089" x2="4087.7787" y1="358.078" y2="358.078"/><text fill="#000000" font-family="sans-serif" font-size="20.2187" lengthAdjust="spacing" textLength="92.4281" x="3105.7298" y="382.6221">batch_sz</text><text fill="#000000" font-family="sans-serif" font-size="20.2187" lengthAdjust="spacing" textLength="98.2049" x="3105.7298" y="406.1579">dec_units</text><text fill="#000000" font-family="sans-serif" font-size="20.2187" lengthAdjust="spacing" textLength="158.8609" x="3105.7298" y="429.6937">attention_type</text><text fill="#000000" font-family="sans-serif" font-size="20.2187" lengthAdjust="spacing" textLength="118.4235" x="3105.7298" y="453.2295">embedding</text><text fill="#000000" font-family="sans-serif" font-size="20.2187" lengthAdjust="spacing" textLength="20.2187" x="3105.7298" y="476.7653">fc</text><text fill="#000000" font-family="sans-serif" font-size="20.2187" lengthAdjust="spacing" textLength="176.1911" x="3105.7298" y="500.301">decoder_rnn_cell</text><text fill="#000000" font-family="sans-serif" font-size="20.2187" lengthAdjust="spacing" textLength="83.763" x="3105.7298" y="523.8368">sampler</text><text fill="#000000" font-family="sans-serif" font-size="20.2187" lengthAdjust="spacing" textLength="228.182" x="3105.7298" y="547.3726">attention_mechanism</text><text fill="#000000" font-family="sans-serif" font-size="20.2187" lengthAdjust="spacing" textLength="80.8746" x="3105.7298" y="570.9084">rnn_cell</text><text fill="#000000" font-family="sans-serif" font-size="20.2187" lengthAdjust="spacing" textLength="85.2072" x="3105.7298" y="594.4441">decoder</text><line style="stroke:#181818;stroke-width:0.7220948151110074;" x1="3098.5089" x2="4087.7787" y1="604.9893" y2="604.9893"/><ellipse cx="3112.9507" cy="620.8754" fill="#84BE84" rx="4.3326" ry="4.3326" style="stroke:#038048;stroke-width:1.4441896302220147;"/><text fill="#000000" font-family="sans-serif" font-size="20.2187" lengthAdjust="spacing" textLength="248.4006" x="3125.9485" y="629.5334">build_rnn_cell(batch_sz)</text><ellipse cx="3112.9507" cy="644.4111" fill="#84BE84" rx="4.3326" ry="4.3326" style="stroke:#038048;stroke-width:1.4441896302220147;"/><text fill="#000000" font-family="sans-serif" font-size="20.2187" lengthAdjust="spacing" textLength="954.6093" x="3125.9485" y="653.0692">build_attention_mechanism(dec_units, memory, memory_sequence_length, attention_type)</text><ellipse cx="3112.9507" cy="667.9469" fill="#84BE84" rx="4.3326" ry="4.3326" style="stroke:#038048;stroke-width:1.4441896302220147;"/><text fill="#000000" font-family="sans-serif" font-size="20.2187" lengthAdjust="spacing" textLength="528.5734" x="3125.9485" y="676.605">build_initial_state(batch_sz, encoder_state, Dtype)</text><ellipse cx="3112.9507" cy="691.4827" fill="#84BE84" rx="4.3326" ry="4.3326" style="stroke:#038048;stroke-width:1.4441896302220147;"/><text fill="#000000" font-family="sans-serif" font-size="20.2187" lengthAdjust="spacing" textLength="456.3639" x="3125.9485" y="700.1408">call(inputs, initial_state,max_length_output)</text></g><!--MD5=[7763e024349b4cac7a01779176319d84]
class Tokenizer--><g id="elem_Tokenizer"><rect codeLine="59" fill="#F1F1F1" height="163.4642" id="Tokenizer" rx="3.6105" ry="3.6105" style="stroke:#181818;stroke-width:0.7220948151110074;" width="616.669" x="2347.5302" y="429.5654"/><ellipse cx="2597.7361" cy="452.6724" fill="#ADD1B2" rx="15.8861" ry="15.8861" style="stroke:#181818;stroke-width:1.4441896302220147;"/><path d="M2601.1209,446.4218 C2599.767,445.7899 2598.9095,445.5868 2597.6458,445.5868 C2593.8548,445.5868 2590.9665,448.588 2590.9665,452.5144 L2590.9665,454.1391 C2590.9665,457.8625 2594.0128,460.5929 2598.1874,460.5929 C2599.9475,460.5929 2601.6174,460.1641 2602.7005,459.3743 C2603.5354,458.7876 2604.0093,458.1332 2604.0093,457.5691 C2604.0093,456.9147 2603.4452,456.3506 2602.7682,456.3506 C2602.4523,456.3506 2602.1589,456.4634 2601.8881,456.7342 C2601.2337,457.4337 2601.2337,457.4337 2600.963,457.5691 C2600.3537,457.9527 2599.3608,458.1332 2598.2551,458.1332 C2595.299,458.1332 2593.4261,456.5537 2593.4261,454.094 L2593.4261,452.5144 C2593.4261,449.942 2595.2313,448.0465 2597.7361,448.0465 C2598.571,448.0465 2599.4511,448.2721 2600.128,448.6332 C2600.8276,449.0394 2601.0758,449.3553 2601.2112,449.942 C2601.3014,450.5287 2601.3466,450.7092 2601.5497,450.8897 C2601.7527,451.0928 2602.0912,451.2508 2602.4071,451.2508 C2602.7908,451.2508 2603.1744,451.0477 2603.4226,450.7318 C2603.5806,450.5061 2603.6257,450.2353 2603.6257,449.6261 L2603.6257,447.5726 C2603.6257,446.9408 2603.6031,446.7602 2603.4677,446.5346 C2603.2421,446.151 2602.8359,445.9479 2602.4071,445.9479 C2601.9784,445.9479 2601.6851,446.0833 2601.3691,446.5346 L2601.1209,446.4218 Z " fill="#000000"/><text fill="#000000" font-family="sans-serif" font-size="20.2187" lengthAdjust="spacing" textLength="103.9817" x="2627.342" y="459.6719">Tokenizer</text><line style="stroke:#181818;stroke-width:0.7220948151110074;" x1="2348.9744" x2="2962.755" y1="475.7794" y2="475.7794"/><text fill="#000000" font-family="sans-serif" font-size="20.2187" lengthAdjust="spacing" textLength="388.487" x="2356.1954" y="500.3236">input_language_common_words_path</text><text fill="#000000" font-family="sans-serif" font-size="20.2187" lengthAdjust="spacing" textLength="400.0405" x="2356.1954" y="523.8594">target_language_common_words_path</text><text fill="#000000" font-family="sans-serif" font-size="20.2187" lengthAdjust="spacing" textLength="177.6353" x="2356.1954" y="547.3952">use_embd_vocab</text><line style="stroke:#181818;stroke-width:0.7220948151110074;" x1="2348.9744" x2="2962.755" y1="557.9403" y2="557.9403"/><ellipse cx="2363.4163" cy="573.8264" fill="#84BE84" rx="4.3326" ry="4.3326" style="stroke:#038048;stroke-width:1.4441896302220147;"/><text fill="#000000" font-family="sans-serif" font-size="20.2187" lengthAdjust="spacing" textLength="579.12" x="2376.414" y="582.4845">get_tokenizer(lang_type,train_lang,val_lang,vocab_size)</text></g><!--MD5=[a8e85890d3859e04586cc11d9e93c16c]
class Train_model--><g id="elem_Train_model"><rect codeLine="68" fill="#F1F1F1" height="257.6073" id="Train_model" rx="3.6105" ry="3.6105" style="stroke:#181818;stroke-width:0.7220948151110074;" width="1048.4817" x="1194.3448" y="382.6292"/><ellipse cx="1648.9035" cy="405.7362" fill="#ADD1B2" rx="15.8861" ry="15.8861" style="stroke:#181818;stroke-width:1.4441896302220147;"/><path d="M1652.2883,399.4856 C1650.9344,398.8538 1650.0769,398.6507 1648.8132,398.6507 C1645.0223,398.6507 1642.1339,401.6519 1642.1339,405.5783 L1642.1339,407.203 C1642.1339,410.9263 1645.1802,413.6567 1649.3548,413.6567 C1651.1149,413.6567 1652.7848,413.228 1653.8679,412.4382 C1654.7028,411.8515 1655.1767,411.1971 1655.1767,410.6329 C1655.1767,409.9785 1654.6126,409.4144 1653.9356,409.4144 C1653.6197,409.4144 1653.3263,409.5272 1653.0556,409.798 C1652.4012,410.4975 1652.4012,410.4975 1652.1304,410.6329 C1651.5211,411.0165 1650.5282,411.1971 1649.4225,411.1971 C1646.4664,411.1971 1644.5935,409.6175 1644.5935,407.1579 L1644.5935,405.5783 C1644.5935,403.0058 1646.3987,401.1103 1648.9035,401.1103 C1649.7384,401.1103 1650.6185,401.336 1651.2954,401.697 C1651.995,402.1032 1652.2432,402.4191 1652.3786,403.0058 C1652.4689,403.5925 1652.514,403.773 1652.7171,403.9536 C1652.9202,404.1566 1653.2586,404.3146 1653.5746,404.3146 C1653.9582,404.3146 1654.3418,404.1115 1654.59,403.7956 C1654.748,403.5699 1654.7931,403.2992 1654.7931,402.6899 L1654.7931,400.6364 C1654.7931,400.0046 1654.7705,399.8241 1654.6351,399.5984 C1654.4095,399.2148 1654.0033,399.0117 1653.5746,399.0117 C1653.1458,399.0117 1652.8525,399.1471 1652.5365,399.5984 L1652.2883,399.4856 Z " fill="#000000"/><text fill="#000000" font-family="sans-serif" font-size="20.2187" lengthAdjust="spacing" textLength="127.0887" x="1678.5094" y="412.7358">Train_model</text><line style="stroke:#181818;stroke-width:0.7220948151110074;" x1="1195.789" x2="2241.3823" y1="428.8433" y2="428.8433"/><text fill="#000000" font-family="sans-serif" font-size="20.2187" lengthAdjust="spacing" textLength="85.2072" x="1203.01" y="453.3874">Encoder</text><text fill="#000000" font-family="sans-serif" font-size="20.2187" lengthAdjust="spacing" textLength="88.0956" x="1203.01" y="476.9232">Decoder</text><text fill="#000000" font-family="sans-serif" font-size="20.2187" lengthAdjust="spacing" textLength="105.4258" x="1203.01" y="500.459">Optimizer</text><text fill="#000000" font-family="sans-serif" font-size="20.2187" lengthAdjust="spacing" textLength="155.9725" x="1203.01" y="523.9948">checkpoint_dir</text><text fill="#000000" font-family="sans-serif" font-size="20.2187" lengthAdjust="spacing" textLength="118.4235" x="1203.01" y="547.5305">checkpoint</text><line style="stroke:#181818;stroke-width:0.7220948151110074;" x1="1195.789" x2="2241.3823" y1="558.0757" y2="558.0757"/><polygon fill="#FFFF44" points="1210.2309,566.7408,1216.0077,572.5176,1210.2309,578.2943,1204.4542,572.5176" style="stroke:#B38D22;stroke-width:1.4441896302220147;"/><text fill="#000000" font-family="sans-serif" font-size="20.2187" lengthAdjust="spacing" textLength="249.8448" x="1223.2286" y="582.6198">loss_function(real, pred)</text><polygon fill="#FFFF44" points="1210.2309,590.2766,1216.0077,596.0533,1210.2309,601.8301,1204.4542,596.0533" style="stroke:#B38D22;stroke-width:1.4441896302220147;"/><text fill="#000000" font-family="sans-serif" font-size="20.2187" lengthAdjust="spacing" textLength="680.2133" x="1223.2286" y="606.1556">train_step(inp, targ, enc_hidden,BATCH_SIZE,max_length_output)</text><ellipse cx="1210.2309" cy="621.0333" fill="#84BE84" rx="4.3326" ry="4.3326" style="stroke:#038048;stroke-width:1.4441896302220147;"/><text fill="#000000" font-family="sans-serif" font-size="20.2187" lengthAdjust="spacing" textLength="1010.9327" x="1223.2286" y="629.6914">train(train_dataset,EPOCHS,steps_per_epoch,BATCH_SIZE,max_length_output,saved_checkpoint)</text></g><!--MD5=[fe6c9d02a96023c72576ec13ad8882e8]
class model--><g id="elem_model"><rect codeLine="84" fill="#F1F1F1" height="257.6073" id="model" rx="3.6105" ry="3.6105" style="stroke:#181818;stroke-width:0.7220948151110074;" width="348.0497" x="621.7236" y="382.6292"/><ellipse cx="757.1164" cy="405.7362" fill="#ADD1B2" rx="15.8861" ry="15.8861" style="stroke:#181818;stroke-width:1.4441896302220147;"/><path d="M760.5012,399.4856 C759.1473,398.8538 758.2898,398.6507 757.0262,398.6507 C753.2352,398.6507 750.3468,401.6519 750.3468,405.5783 L750.3468,407.203 C750.3468,410.9263 753.3931,413.6567 757.5677,413.6567 C759.3278,413.6567 760.9977,413.228 762.0808,412.4382 C762.9157,411.8515 763.3896,411.1971 763.3896,410.6329 C763.3896,409.9785 762.8255,409.4144 762.1485,409.4144 C761.8326,409.4144 761.5392,409.5272 761.2685,409.798 C760.6141,410.4975 760.6141,410.4975 760.3433,410.6329 C759.734,411.0165 758.7411,411.1971 757.6354,411.1971 C754.6793,411.1971 752.8064,409.6175 752.8064,407.1579 L752.8064,405.5783 C752.8064,403.0058 754.6116,401.1103 757.1164,401.1103 C757.9513,401.1103 758.8314,401.336 759.5084,401.697 C760.2079,402.1032 760.4561,402.4191 760.5915,403.0058 C760.6818,403.5925 760.7269,403.773 760.93,403.9536 C761.1331,404.1566 761.4715,404.3146 761.7875,404.3146 C762.1711,404.3146 762.5547,404.1115 762.8029,403.7956 C762.9609,403.5699 763.006,403.2992 763.006,402.6899 L763.006,400.6364 C763.006,400.0046 762.9834,399.8241 762.848,399.5984 C762.6224,399.2148 762.2162,399.0117 761.7875,399.0117 C761.3587,399.0117 761.0654,399.1471 760.7495,399.5984 L760.5012,399.4856 Z " fill="#000000"/><text fill="#000000" font-family="sans-serif" font-size="20.2187" lengthAdjust="spacing" textLength="64.9885" x="786.7223" y="412.7358">model</text><line style="stroke:#181818;stroke-width:0.7220948151110074;" x1="623.1678" x2="968.3291" y1="428.8433" y2="428.8433"/><text fill="#000000" font-family="sans-serif" font-size="20.2187" lengthAdjust="spacing" textLength="83.763" x="630.3888" y="453.3874">data_dir</text><text fill="#000000" font-family="sans-serif" font-size="20.2187" lengthAdjust="spacing" textLength="92.4281" x="630.3888" y="476.9232">tokenize</text><text fill="#000000" font-family="sans-serif" font-size="20.2187" lengthAdjust="spacing" textLength="105.4258" x="630.3888" y="500.459">use_embd</text><line style="stroke:#181818;stroke-width:0.7220948151110074;" x1="623.1678" x2="968.3291" y1="511.0041" y2="511.0041"/><polygon fill="#FFFF44" points="637.6097,519.6693,643.3865,525.446,637.6097,531.2228,631.833,525.446" style="stroke:#B38D22;stroke-width:1.4441896302220147;"/><text fill="#000000" font-family="sans-serif" font-size="20.2187" lengthAdjust="spacing" textLength="186.3005" x="650.6074" y="535.5483">set_embeddings()</text><polygon fill="#FFFF44" points="637.6097,543.205,643.3865,548.9818,637.6097,554.7585,631.833,548.9818" style="stroke:#B38D22;stroke-width:1.4441896302220147;"/><text fill="#000000" font-family="sans-serif" font-size="20.2187" lengthAdjust="spacing" textLength="137.198" x="650.6074" y="559.0841">set_dataset()</text><ellipse cx="637.6097" cy="573.9618" fill="#84BE84" rx="4.3326" ry="4.3326" style="stroke:#038048;stroke-width:1.4441896302220147;"/><text fill="#000000" font-family="sans-serif" font-size="20.2187" lengthAdjust="spacing" textLength="310.5008" x="650.6074" y="582.6198">initialize(use_default, hparms)</text><ellipse cx="637.6097" cy="597.4975" fill="#84BE84" rx="4.3326" ry="4.3326" style="stroke:#038048;stroke-width:1.4441896302220147;"/><text fill="#000000" font-family="sans-serif" font-size="20.2187" lengthAdjust="spacing" textLength="251.289" x="650.6074" y="606.1556">train(saved_checkpoint)</text><ellipse cx="637.6097" cy="621.0333" fill="#84BE84" rx="4.3326" ry="4.3326" style="stroke:#038048;stroke-width:1.4441896302220147;"/><text fill="#000000" font-family="sans-serif" font-size="20.2187" lengthAdjust="spacing" textLength="109.7584" x="650.6074" y="629.6914">save(path)</text></g><!--MD5=[09ae60eff7ee4a2d7ee9a92ced4fa2c7]
class model_--><g id="elem_model_"><rect codeLine="97" fill="#F1F1F1" height="257.6073" id="model_" rx="3.6105" ry="3.6105" style="stroke:#181818;stroke-width:0.7220948151110074;" width="348.0497" x="117.7015" y="382.6292"/><ellipse cx="248.0396" cy="405.7362" fill="#ADD1B2" rx="15.8861" ry="15.8861" style="stroke:#181818;stroke-width:1.4441896302220147;"/><path d="M251.4244,399.4856 C250.0705,398.8538 249.213,398.6507 247.9493,398.6507 C244.1583,398.6507 241.2699,401.6519 241.2699,405.5783 L241.2699,407.203 C241.2699,410.9263 244.3163,413.6567 248.4909,413.6567 C250.251,413.6567 251.9208,413.228 253.004,412.4382 C253.8389,411.8515 254.3128,411.1971 254.3128,410.6329 C254.3128,409.9785 253.7486,409.4144 253.0717,409.4144 C252.7558,409.4144 252.4624,409.5272 252.1916,409.798 C251.5372,410.4975 251.5372,410.4975 251.2664,410.6329 C250.6572,411.0165 249.6643,411.1971 248.5586,411.1971 C245.6025,411.1971 243.7296,409.6175 243.7296,407.1579 L243.7296,405.5783 C243.7296,403.0058 245.5348,401.1103 248.0396,401.1103 C248.8745,401.1103 249.7545,401.336 250.4315,401.697 C251.131,402.1032 251.3793,402.4191 251.5147,403.0058 C251.6049,403.5925 251.65,403.773 251.8531,403.9536 C252.0562,404.1566 252.3947,404.3146 252.7106,404.3146 C253.0942,404.3146 253.4778,404.1115 253.7261,403.7956 C253.884,403.5699 253.9292,403.2992 253.9292,402.6899 L253.9292,400.6364 C253.9292,400.0046 253.9066,399.8241 253.7712,399.5984 C253.5455,399.2148 253.1394,399.0117 252.7106,399.0117 C252.2819,399.0117 251.9885,399.1471 251.6726,399.5984 L251.4244,399.4856 Z " fill="#000000"/><text fill="#000000" font-family="sans-serif" font-size="20.2187" lengthAdjust="spacing" textLength="75.0979" x="277.6455" y="412.7358">model_</text><line style="stroke:#181818;stroke-width:0.7220948151110074;" x1="119.1456" x2="464.307" y1="428.8433" y2="428.8433"/><text fill="#000000" font-family="sans-serif" font-size="20.2187" lengthAdjust="spacing" textLength="83.763" x="126.3666" y="453.3874">data_dir</text><text fill="#000000" font-family="sans-serif" font-size="20.2187" lengthAdjust="spacing" textLength="92.4281" x="126.3666" y="476.9232">tokenize</text><text fill="#000000" font-family="sans-serif" font-size="20.2187" lengthAdjust="spacing" textLength="105.4258" x="126.3666" y="500.459">use_embd</text><text fill="#000000" font-family="sans-serif" font-size="20.2187" lengthAdjust="spacing" textLength="108.3142" x="126.3666" y="523.9948">train_path</text><text fill="#000000" font-family="sans-serif" font-size="20.2187" lengthAdjust="spacing" textLength="102.5375" x="126.3666" y="547.5305">test_path</text><line style="stroke:#181818;stroke-width:0.7220948151110074;" x1="119.1456" x2="464.307" y1="558.0757" y2="558.0757"/><ellipse cx="133.5875" cy="573.9618" fill="#84BE84" rx="4.3326" ry="4.3326" style="stroke:#038048;stroke-width:1.4441896302220147;"/><text fill="#000000" font-family="sans-serif" font-size="20.2187" lengthAdjust="spacing" textLength="310.5008" x="146.5852" y="582.6198">initialize(use_default, hparms)</text><ellipse cx="133.5875" cy="597.4975" fill="#84BE84" rx="4.3326" ry="4.3326" style="stroke:#038048;stroke-width:1.4441896302220147;"/><text fill="#000000" font-family="sans-serif" font-size="20.2187" lengthAdjust="spacing" textLength="251.289" x="146.5852" y="606.1556">train(saved_checkpoint)</text><ellipse cx="133.5875" cy="621.0333" fill="#84BE84" rx="4.3326" ry="4.3326" style="stroke:#038048;stroke-width:1.4441896302220147;"/><text fill="#000000" font-family="sans-serif" font-size="20.2187" lengthAdjust="spacing" textLength="109.7584" x="146.5852" y="629.6914">save(path)</text></g><!--MD5=[8cdf4085b5139fe03f7bef85f6948800]
class translator--><g id="elem_translator"><rect codeLine="114" fill="#F1F1F1" height="375.2862" id="translator" rx="3.6105" ry="3.6105" style="stroke:#181818;stroke-width:0.7220948151110074;" width="343.7171" x="6101.7012" y="323.4174"/><ellipse cx="6216.1532" cy="346.5245" fill="#ADD1B2" rx="15.8861" ry="15.8861" style="stroke:#181818;stroke-width:1.4441896302220147;"/><path d="M6219.538,340.2738 C6218.1841,339.642 6217.3266,339.4389 6216.063,339.4389 C6212.272,339.4389 6209.3836,342.4401 6209.3836,346.3665 L6209.3836,347.9912 C6209.3836,351.7145 6212.4299,354.4449 6216.6045,354.4449 C6218.3646,354.4449 6220.0345,354.0162 6221.1176,353.2264 C6221.9525,352.6397 6222.4264,351.9853 6222.4264,351.4212 C6222.4264,350.7668 6221.8623,350.2026 6221.1853,350.2026 C6220.8694,350.2026 6220.576,350.3155 6220.3053,350.5862 C6219.6509,351.2858 6219.6509,351.2858 6219.3801,351.4212 C6218.7708,351.8048 6217.7779,351.9853 6216.6722,351.9853 C6213.7161,351.9853 6211.8432,350.4057 6211.8432,347.9461 L6211.8432,346.3665 C6211.8432,343.794 6213.6484,341.8985 6216.1532,341.8985 C6216.9881,341.8985 6217.8682,342.1242 6218.5452,342.4852 C6219.2447,342.8914 6219.4929,343.2073 6219.6283,343.794 C6219.7186,344.3807 6219.7637,344.5613 6219.9668,344.7418 C6220.1699,344.9449 6220.5084,345.1028 6220.8243,345.1028 C6221.2079,345.1028 6221.5915,344.8997 6221.8397,344.5838 C6221.9977,344.3582 6222.0428,344.0874 6222.0428,343.4781 L6222.0428,341.4247 C6222.0428,340.7928 6222.0202,340.6123 6221.8848,340.3867 C6221.6592,340.003 6221.253,339.7999 6220.8243,339.7999 C6220.3955,339.7999 6220.1022,339.9353 6219.7863,340.3867 L6219.538,340.2738 Z " fill="#000000"/><text fill="#000000" font-family="sans-serif" font-size="20.2187" lengthAdjust="spacing" textLength="102.5375" x="6245.7591" y="353.524">translator</text><line style="stroke:#181818;stroke-width:0.7220948151110074;" x1="6103.1454" x2="6443.9741" y1="369.6315" y2="369.6315"/><text fill="#000000" font-family="sans-serif" font-size="20.2187" lengthAdjust="spacing" textLength="83.763" x="6110.3663" y="394.1757">data_dir</text><text fill="#000000" font-family="sans-serif" font-size="20.2187" lengthAdjust="spacing" textLength="124.2003" x="6110.3663" y="417.7114">target_emb</text><text fill="#000000" font-family="sans-serif" font-size="20.2187" lengthAdjust="spacing" textLength="112.6468" x="6110.3663" y="441.2472">input_emb</text><text fill="#000000" font-family="sans-serif" font-size="20.2187" lengthAdjust="spacing" textLength="60.656" x="6110.3663" y="464.783">embd</text><text fill="#000000" font-family="sans-serif" font-size="20.2187" lengthAdjust="spacing" textLength="225.2936" x="6110.3663" y="488.3188">example_input_batch</text><text fill="#000000" font-family="sans-serif" font-size="20.2187" lengthAdjust="spacing" textLength="111.2026" x="6110.3663" y="511.8546">batch_size</text><text fill="#000000" font-family="sans-serif" font-size="20.2187" lengthAdjust="spacing" textLength="155.9725" x="6110.3663" y="535.3903">vocab_inp_size</text><text fill="#000000" font-family="sans-serif" font-size="20.2187" lengthAdjust="spacing" textLength="153.0841" x="6110.3663" y="558.9261">vocab_tar_size</text><text fill="#000000" font-family="sans-serif" font-size="20.2187" lengthAdjust="spacing" textLength="186.3005" x="6110.3663" y="582.4619">max_length_input</text><text fill="#000000" font-family="sans-serif" font-size="20.2187" lengthAdjust="spacing" textLength="202.1865" x="6110.3663" y="605.9977">max_length_output</text><text fill="#000000" font-family="sans-serif" font-size="20.2187" lengthAdjust="spacing" textLength="50.5466" x="6110.3663" y="629.5334">units</text><line style="stroke:#181818;stroke-width:0.7220948151110074;" x1="6103.1454" x2="6443.9741" y1="640.0786" y2="640.0786"/><polygon fill="#FFFF44" points="6117.5873,648.7437,6123.364,654.5205,6117.5873,660.2972,6111.8105,654.5205" style="stroke:#B38D22;stroke-width:1.4441896302220147;"/><text fill="#000000" font-family="sans-serif" font-size="20.2187" lengthAdjust="spacing" textLength="306.1682" x="6130.585" y="664.6227">evaluate_sentence(sentence)</text><ellipse cx="6117.5873" cy="679.5004" fill="#84BE84" rx="4.3326" ry="4.3326" style="stroke:#038048;stroke-width:1.4441896302220147;"/><text fill="#000000" font-family="sans-serif" font-size="20.2187" lengthAdjust="spacing" textLength="212.2959" x="6130.585" y="688.1585">translate(sentence):</text></g><!--MD5=[9f1927e16fb527fbd11c6d3dbed82cb7]
reverse link Custom_model to Model--><g id="link_Custom_model_Model"><path d="M558.8601,468.8024 C558.7576,468.3766 558.6548,467.9481 558.5519,467.5171 C558.3459,466.655 558.1389,465.7825 557.9312,464.9 C557.1003,461.3697 556.2566,457.6774 555.4098,453.8375 C548.6354,423.1186 541.6638,382.9542 539.4599,340.7107 C535.052,256.2236 549.7149,163.42 623.1678,121.2309 C679.5215,88.8623 2906.4027,88.8623 2962.755,121.2309 C2999.9682,142.6042 3024.0266,176.4961 3039.1195,215.5894 C3042.8927,225.3627 3046.1056,235.4611 3048.8236,245.7703 C3049.1633,247.0589 3049.4954,248.3508 3049.8198,249.6458 " fill="none" id="Custom_model-backto-Model" style="stroke:#181818;stroke-width:1.4441896302220147;"/><polygon fill="#181818" points="558.8601,468.8024,562.4488,459.0261,554.8047,451.9534,551.216,461.7297,558.8601,468.8024" style="stroke:#181818;stroke-width:1.4441896302220147;"/></g><!--MD5=[3aeb03d565b6d3770cd8634ef3fbbff9]
reverse link Custom_model to Train--><g id="link_Custom_model_Train"><path d="M558.8601,468.8024 C558.7576,468.3766 558.6548,467.9481 558.5519,467.5171 C558.3459,466.655 558.1389,465.7825 557.9312,464.9 C557.1003,461.3697 556.2566,457.6774 555.4098,453.8375 C548.6354,423.1186 541.6638,382.9542 539.4599,340.7107 C535.052,256.2236 549.7149,163.42 623.1678,121.2309 C689.68,83.0277 901.817,83.0277 968.3291,121.2309 C1048.151,167.0781 1091.8139,259.9962 1115.619,343.6285 C1121.5703,364.5366 1126.2804,384.8643 1130.0042,403.7311 C1130.4697,406.0894 1130.9197,408.4249 1131.3549,410.7359 C1131.5724,411.8914 1131.7863,413.0407 1131.9964,414.1837 " fill="none" id="Custom_model-backto-Train" style="stroke:#181818;stroke-width:1.4441896302220147;"/><polygon fill="#181818" points="558.8601,468.8024,562.4488,459.0261,554.8047,451.9534,551.216,461.7297,558.8601,468.8024" style="stroke:#181818;stroke-width:1.4441896302220147;"/></g><!--MD5=[9c8e95054d709e8803a2d6a3eb48d353]
reverse link Custom_model to Data--><g id="link_Custom_model_Data"><path d="M558.8601,468.8024 C558.7576,468.3766 558.6548,467.9481 558.5519,467.5171 C558.3459,466.655 558.1389,465.7825 557.9312,464.9 C557.1003,461.3697 556.2566,457.6774 555.4098,453.8375 C548.6354,423.1186 541.6638,382.9542 539.4599,340.7107 C535.052,256.2236 549.7149,163.42 623.1678,121.2309 C714.7266,68.6422 4332.7133,68.6422 4424.2749,121.2309 C4461.9936,142.8962 4487.6685,176.9388 4504.9212,216.0925 C4513.5475,235.6694 4520.0683,256.524 4524.9361,277.7482 C4527.37,288.3603 4529.3907,299.0648 4531.0547,309.7482 C4531.4707,312.419 4531.8644,315.0885 4532.2367,317.7549 C4532.3298,318.4215 4532.4216,319.088 4532.512,319.7541 " fill="none" id="Custom_model-backto-Data" style="stroke:#181818;stroke-width:1.4441896302220147;"/><polygon fill="#181818" points="558.8601,468.8024,562.4488,459.0261,554.8047,451.9534,551.216,461.7297,558.8601,468.8024" style="stroke:#181818;stroke-width:1.4441896302220147;"/></g><!--MD5=[14a18c4e64b2ee2539bace8fa5124aa6]
reverse link Custom_model to Embeddings--><g id="link_Custom_model_Embeddings"><path codeLine="137" d="M558.8601,468.8024 C558.7576,468.3766 558.6548,467.9481 558.5519,467.5171 C558.3459,466.655 558.1389,465.7825 557.9312,464.9 C557.1003,461.3697 556.2566,457.6774 555.4098,453.8375 C548.6354,423.1186 541.6638,382.9542 539.4599,340.7107 C535.052,256.2236 549.7149,163.42 623.1678,121.2309 C679.7483,88.7323 5261.6594,94.3458 5321.1167,121.2309 C5460.3655,184.1961 5565.5747,334.724 5620.786,429.2577 " fill="none" id="Custom_model-backto-Embeddings" style="stroke:#181818;stroke-width:1.4441896302220147;"/><polygon fill="#181818" points="558.8601,468.8024,562.4488,459.0261,554.8047,451.9534,551.216,461.7297,558.8601,468.8024" style="stroke:#181818;stroke-width:1.4441896302220147;"/></g><!--MD5=[febc4d5836dcb207f155eead7604fd1f]
reverse link Custom_model to Tokenizer--><g id="link_Custom_model_Tokenizer"><path codeLine="138" d="M558.8601,468.8024 C558.7576,468.3766 558.6548,467.9481 558.5519,467.5171 C558.3459,466.655 558.1389,465.7825 557.9312,464.9 C557.1003,461.3697 556.2566,457.6774 555.4098,453.8375 C548.6354,423.1186 541.6638,382.9542 539.4599,340.7107 C535.052,256.2236 549.7149,163.42 623.1678,121.2309 C701.0905,76.4754 2157.1138,88.1488 2240.6602,121.2309 C2396.7338,183.0277 2528.3861,334.3182 2599.3825,429.2462 " fill="none" id="Custom_model-backto-Tokenizer" style="stroke:#181818;stroke-width:1.4441896302220147;"/><polygon fill="#181818" points="558.8601,468.8024,562.4488,459.0261,554.8047,451.9534,551.216,461.7297,558.8601,468.8024" style="stroke:#181818;stroke-width:1.4441896302220147;"/></g><!--MD5=[89d74e07ce836f5fce156f5a11b241af]
reverse link Model_ to Model--><g id="link_Model__Model"><path d="M54.8377,468.8024 C54.7352,468.3766 54.6324,467.9481 54.5294,467.5171 C54.3234,466.655 54.1165,465.7825 53.9088,464.9 C53.0779,461.3697 52.2341,457.6774 51.3874,453.8375 C44.613,423.1186 37.6415,382.9542 35.4375,340.7107 C31.0297,256.2236 45.6926,163.42 119.1456,121.2309 C187.6407,81.8897 2894.2571,81.8897 2962.755,121.2309 C2999.9682,142.6042 3024.0266,176.4961 3039.1195,215.5894 C3042.8927,225.3627 3046.1056,235.4611 3048.8236,245.7703 C3049.1633,247.0589 3049.4954,248.3508 3049.8198,249.6458 " fill="none" id="Model_-backto-Model" style="stroke:#181818;stroke-width:1.4441896302220147;"/><polygon fill="#181818" points="54.8377,468.8024,58.4263,459.0261,50.7823,451.9533,47.1936,461.7297,54.8377,468.8024" style="stroke:#181818;stroke-width:1.4441896302220147;"/></g><!--MD5=[5623270b4135bebc59f0257a4f0f68e1]
reverse link Model_ to Train--><g id="link_Model__Train"><path d="M54.8377,468.8024 C54.7352,468.3766 54.6324,467.9481 54.5294,467.5171 C54.3234,466.655 54.1165,465.7825 53.9088,464.9 C53.0779,461.3697 52.2341,457.6774 51.3874,453.8375 C44.613,423.1186 37.6415,382.9542 35.4375,340.7107 C31.0297,256.2236 45.6926,163.42 119.1456,121.2309 C200.9633,74.2369 886.5115,74.2369 968.3291,121.2309 C1048.151,167.0781 1091.8139,259.9962 1115.619,343.6285 C1121.5703,364.5366 1126.2804,384.8643 1130.0042,403.7311 C1130.4697,406.0894 1130.9197,408.4249 1131.3549,410.7359 C1131.5724,411.8914 1131.7863,413.0407 1131.9964,414.1837 " fill="none" id="Model_-backto-Train" style="stroke:#181818;stroke-width:1.4441896302220147;"/><polygon fill="#181818" points="54.8377,468.8024,58.4263,459.0261,50.7823,451.9533,47.1936,461.7297,54.8377,468.8024" style="stroke:#181818;stroke-width:1.4441896302220147;"/></g><!--MD5=[c13503b41cf90f44327dddd94cc136f1]
reverse link Model_ to Data--><g id="link_Model__Data"><path d="M54.8377,468.8024 C54.7352,468.3766 54.6324,467.9481 54.5294,467.5171 C54.3234,466.655 54.1165,465.7825 53.9088,464.9 C53.0779,461.3697 52.2341,457.6774 51.3874,453.8375 C44.613,423.1186 37.6415,382.9542 35.4375,340.7107 C31.0297,256.2236 45.6926,163.42 119.1456,121.2309 C170.9949,91.4502 4372.4285,91.4502 4424.2749,121.2309 C4461.9936,142.8962 4487.6685,176.9388 4504.9212,216.0925 C4513.5475,235.6694 4520.0683,256.524 4524.9361,277.7482 C4527.37,288.3603 4529.3907,299.0648 4531.0547,309.7482 C4531.4707,312.419 4531.8644,315.0885 4532.2367,317.7549 C4532.3298,318.4215 4532.4216,319.088 4532.512,319.7541 " fill="none" id="Model_-backto-Data" style="stroke:#181818;stroke-width:1.4441896302220147;"/><polygon fill="#181818" points="54.8377,468.8024,58.4263,459.0261,50.7823,451.9533,47.1936,461.7297,54.8377,468.8024" style="stroke:#181818;stroke-width:1.4441896302220147;"/></g><!--MD5=[f15d5bc0b9f4f13460c5148cf1024bc7]
reverse link Model_ to Embeddings--><g id="link_Model__Embeddings"><path codeLine="143" d="M54.8377,468.8024 C54.7352,468.3766 54.6324,467.9481 54.5294,467.5171 C54.3234,466.655 54.1165,465.7825 53.9088,464.9 C53.0779,461.3697 52.2341,457.6774 51.3874,453.8375 C44.613,423.1186 37.6415,382.9542 35.4375,340.7107 C31.0297,256.2236 45.6926,163.42 119.1456,121.2309 C181.796,85.246 5255.2905,91.4618 5321.1167,121.2309 C5460.3655,184.1961 5565.5747,334.724 5620.786,429.2577 " fill="none" id="Model_-backto-Embeddings" style="stroke:#181818;stroke-width:1.4441896302220147;"/><polygon fill="#181818" points="54.8377,468.8024,58.4263,459.0261,50.7823,451.9533,47.1936,461.7297,54.8377,468.8024" style="stroke:#181818;stroke-width:1.4441896302220147;"/></g><!--MD5=[74f00a801c95e4fa635e56a12ce2fdad]
reverse link Model_ to Tokenizer--><g id="link_Model__Tokenizer"><path codeLine="144" d="M54.8377,468.8024 C54.7352,468.3766 54.6324,467.9481 54.5294,467.5171 C54.3234,466.655 54.1165,465.7825 53.9088,464.9 C53.0779,461.3697 52.2341,457.6774 51.3874,453.8375 C44.613,423.1186 37.6415,382.9542 35.4375,340.7107 C31.0297,256.2236 45.6926,163.42 119.1456,121.2309 C221.3481,62.5289 2131.0751,77.8416 2240.6602,121.2309 C2396.7338,183.0277 2528.3861,334.3182 2599.3825,429.2462 " fill="none" id="Model_-backto-Tokenizer" style="stroke:#181818;stroke-width:1.4441896302220147;"/><polygon fill="#181818" points="54.8377,468.8024,58.4263,459.0261,50.7823,451.9533,47.1936,461.7297,54.8377,468.8024" style="stroke:#181818;stroke-width:1.4441896302220147;"/></g><!--MD5=[665b16dde72c7b917cbd3e5712f8f7ab]
reverse link Translator to Model--><g id="link_Translator_Model"><path d="M6039.5018,371.8803 C6039.3902,371.2478 6039.2775,370.6143 6039.1637,369.98 C6038.9362,368.7113 6038.7044,367.4388 6038.4683,366.1628 C6037.9961,363.6109 6037.5067,361.0449 6036.9993,358.4666 C6035.9847,353.3101 6034.8985,348.1043 6033.7358,342.8633 C6015.1329,259.0066 5976.9449,166.1185 5898.7925,121.2309 C5831.3344,82.489 3165.9669,82.489 3098.5089,121.2309 C3025.0574,163.42 3010.3952,256.2236 3014.8036,340.7107 C3017.0078,382.9542 3023.9796,423.1186 3030.7542,453.8375 C3031.6011,457.6774 3032.4448,461.3697 3033.2758,464.9 C3033.4835,465.7825 3033.6905,466.655 3033.8965,467.5171 C3033.9995,467.9481 3034.1022,468.3766 3034.2047,468.8024 " fill="none" id="Translator-backto-Model" style="stroke:#181818;stroke-width:1.4441896302220147;"/><polygon fill="#181818" points="6039.5018,371.8803,6043.6841,362.3427,6036.4888,354.8139,6032.3066,364.3514,6039.5018,371.8803" style="stroke:#181818;stroke-width:1.4441896302220147;"/></g><!--MD5=[3e8e5e8d03f222973fee85daa576f239]
reverse link Translator to Train--><g id="link_Translator_Train"><path d="M6039.5018,371.8803 C6039.3902,371.2478 6039.2775,370.6143 6039.1637,369.98 C6038.9362,368.7113 6038.7044,367.4388 6038.4683,366.1628 C6037.9961,363.6109 6037.5067,361.0449 6036.9993,358.4666 C6035.9847,353.3101 6034.8985,348.1043 6033.7358,342.8633 C6015.1329,259.0066 5976.9449,166.1185 5898.7925,121.2309 C5842.1659,88.7034 1253.1436,88.7034 1196.5111,121.2309 C1123.0582,163.42 1108.3953,256.2236 1112.8032,340.7107 C1115.0071,382.9542 1121.9787,423.1186 1128.753,453.8375 C1129.5998,457.6774 1130.4436,461.3697 1131.2745,464.9 C1131.4822,465.7825 1131.6892,466.655 1131.8951,467.5171 C1131.9981,467.9481 1132.1009,468.3766 1132.2034,468.8024 " fill="none" id="Translator-backto-Train" style="stroke:#181818;stroke-width:1.4441896302220147;"/><polygon fill="#181818" points="6039.5018,371.8803,6043.6841,362.3427,6036.4888,354.8139,6032.3066,364.3514,6039.5018,371.8803" style="stroke:#181818;stroke-width:1.4441896302220147;"/></g><!--MD5=[bcf6bf70ff32004271b828321e7089bd]
reverse link Translator to Data--><g id="link_Translator_Data"><path d="M6039.5018,371.8803 C6039.3902,371.2478 6039.2775,370.6143 6039.1637,369.98 C6038.9362,368.7113 6038.7044,367.4388 6038.4683,366.1628 C6037.9961,363.6109 6037.5067,361.0449 6036.9993,358.4666 C6035.9847,353.3101 6034.8985,348.1043 6033.7358,342.8633 C6015.1329,259.0066 5976.9449,166.1185 5898.7925,121.2309 C5835.4071,84.8272 4646.5213,84.8272 4583.1358,121.2309 C4509.6843,163.42 4495.0222,256.2236 4499.4306,340.7107 C4501.6348,382.9542 4508.6066,423.1186 4515.3812,453.8375 C4516.228,457.6774 4517.0718,461.3697 4517.9027,464.9 C4518.1105,465.7825 4518.3174,466.655 4518.5234,467.5171 C4518.6264,467.9481 4518.7291,468.3766 4518.8317,468.8024 " fill="none" id="Translator-backto-Data" style="stroke:#181818;stroke-width:1.4441896302220147;"/><polygon fill="#181818" points="6039.5018,371.8803,6043.6841,362.3427,6036.4888,354.8139,6032.3066,364.3514,6039.5018,371.8803" style="stroke:#181818;stroke-width:1.4441896302220147;"/></g><!--MD5=[28ac68d2e503205b25778e65f78d8ccc]
reverse link Translator to Embeddings--><g id="link_Translator_Embeddings"><path codeLine="149" d="M6039.4717,511.1621 C6039.2771,511.1621 6039.0825,511.1621 6038.8879,511.1621 C6038.1096,511.1621 6037.3313,511.1621 6036.553,511.1621 C6034.9963,511.1621 6033.4397,511.1621 6031.883,511.1621 C6025.6563,511.1621 6019.4294,511.1621 6013.2024,511.1621 C6000.7483,511.1621 5988.2935,511.1621 5975.8383,511.1621 C5950.9278,511.1621 5926.0155,511.1621 5901.1032,511.1621 " fill="none" id="Translator-backto-Embeddings" style="stroke:#181818;stroke-width:1.4441896302220147;"/><polygon fill="#181818" points="6039.4717,511.1621,6030.8065,505.3853,6022.1414,511.1621,6030.8065,516.9388,6039.4717,511.1621" style="stroke:#181818;stroke-width:1.4441896302220147;"/></g><!--MD5=[96edd208922cd9770e2ec1823fcf93f8]
reverse link Translator to Tokenizer--><g id="link_Translator_Tokenizer"><path codeLine="150" d="M6039.5018,371.8803 C6039.3902,371.2478 6039.2775,370.6143 6039.1637,369.98 C6038.9362,368.7113 6038.7044,367.4388 6038.4683,366.1628 C6037.9961,363.6109 6037.5067,361.0449 6036.9993,358.4666 C6035.9847,353.3101 6034.8985,348.1043 6033.7358,342.8633 C6015.1329,259.0066 5976.9449,166.1185 5898.7925,121.2309 C5830.1213,81.7901 3121.1682,91.0271 3047.9622,121.2309 C2897.3188,183.3859 2774.0572,334.5593 2708.1011,429.369 " fill="none" id="Translator-backto-Tokenizer" style="stroke:#181818;stroke-width:1.4441896302220147;"/><polygon fill="#181818" points="6039.5018,371.8803,6043.6841,362.3427,6036.4888,354.8139,6032.3066,364.3514,6039.5018,371.8803" style="stroke:#181818;stroke-width:1.4441896302220147;"/></g><!--MD5=[c072345aa1ad78e0933b4fab2a0c277c]
@startuml
title Package Digram 

scale 2
scale max 200 width
scale 800 height


package src{
  package Embeddings{
    class Embeddings{
      input_wtv 
      target_wtv 
      +create_embedding_mat(lang_type ,lang)
      +get_embedding_leyar(embedding_matrix)
    }
  }
  package Data{
    class Dataset{
      train_path  
      test_path 
      inp_lang_tokenizer 
      targ_lang_tokenizer 
      tranning_size   
      + load_data(num_examples, train)
      + get_data(tokenize,vocab_size,num_examples)
      + call(num_examples, BUFFER_SIZE, BATCH_SIZE,vocab_size,tokenize)
    }
  }
  package Model{
    class Encoder{
      batch_sz  
      enc_units 
      embedding 
      lstm_layer  
      + call(x, hidden)
      + initialize_hidden_state()
    }

    class  Decoder{
      batch_sz 
      dec_units 
      attention_type 
      embedding 
      fc 
      decoder_rnn_cell 
      sampler 
      attention_mechanism 
      rnn_cell 
      decoder 
      +  build_rnn_cell(batch_sz)
      +  build_attention_mechanism(dec_units, memory, memory_sequence_length, attention_type)
      +  build_initial_state(batch_sz, encoder_state, Dtype)
      +  call(inputs, initial_state,max_length_output)

    }

}
package Tokenizer{
  class  Tokenizer{
    input_language_common_words_path 
    target_language_common_words_path 
    use_embd_vocab 
    +  get_tokenizer(lang_type,train_lang,val_lang,vocab_size)
  }
}

package Train{
  class Train_model{
    Encoder 
    Decoder 
    Optimizer 
    checkpoint_dir 
    checkpoint 
    # loss_function(real, pred)
    # train_step(inp, targ, enc_hidden,BATCH_SIZE,max_length_output)
    + train(train_dataset,EPOCHS,steps_per_epoch,BATCH_SIZE,max_length_output,saved_checkpoint)
  }
}

}

package build {
  package Custom_model{
    class model {
      data_dir 
      tokenize 
      use_embd 
      # set_embeddings()
      # set_dataset()
      + initialize(use_default, hparms)
      + train(saved_checkpoint)
      + save(path)
    }

  }
  package Model_{
    class model_ {
      data_dir 
      tokenize 
      use_embd 
      train_path 
      test_path 
      + initialize(use_default, hparms)
      + train(saved_checkpoint)
      + save(path)
    }

  }
}


package use {
  package Translator {
    class translator {
      data_dir 
      target_emb
      input_emb 
      embd 
      example_input_batch 
      batch_size 
      vocab_inp_size 
      vocab_tar_size 
      max_length_input 
      max_length_output 
      units 
      # evaluate_sentence(sentence)
      + translate(sentence):
    }
  }
}



Custom_model *-down Model
Custom_model *-up Train
Custom_model *- Data
Custom_model *- Embeddings
Custom_model *- Tokenizer

Model_ *- Model
Model_ *- Train
Model_ *- Data
Model_ *- Embeddings
Model_ *- Tokenizer

Translator *- Model
Translator *- Train
Translator *- Data
Translator *- Embeddings
Translator *- Tokenizer
@enduml

PlantUML version 1.2022.4beta2(Unknown compile time)
(GPL source distribution)
Java Runtime: Java(TM) SE Runtime Environment
JVM: Java HotSpot(TM) 64-Bit Server VM
Default Encoding: UTF-8
Language: en
Country: US
--></g></svg>